# xmcd CD database file
#
# Track frame offsets:
#	150
#	9254
#	20563
#	28712
#	42754
#	49077
#	64145
#	80715
#	91048
#	110029
#	131465
#	150665
#	159635
#	176620
#	196825
#	210154
#	224921
#	243212
#	256001
#
# Disc length: 3564 seconds
#
# Revision: 0
# Processed by: cddbd v1.5.1PL2 Copyright (c) Steve Scherf et al.
# Submitted via: CDex 1.51
#
DISCID=f60dea13
DTITLE=Tim Zimmerman and the King's Brass - Christmas in Europe
DYEAR=2000
DGENRE=Jazz
TTITLE0=Fanfare and Flourishes
TTITLE1=Hark the Herald Angels Sing
TTITLE2=Jingle Bells
TTITLE3=White Christmas
TTITLE4=Good King Wenceslas
TTITLE5=Emmanuel
TTITLE6=Joy to the World
TTITLE7=Montiverdi-Vespers
TTITLE8=Angels We Have Heard on High
TTITLE9=Go, Tell It On The Mountain
TTITLE10=Santa Claus is Comin' To Town
TTITLE11=We Three kings
TTITLE12=Feliz Navidad
TTITLE13=Deck the Halls
TTITLE14=Canzon Septimi Toni No. 2
TTITLE15=O Come, O Come, Emmanuel
TTITLE16=For Unto Us a Child is Born
TTITLE17=Silent Night!  Holy Night!
TTITLE18=Hosanna, Christ is Born
EXTD=YEAR: 2000
EXTT0=
EXTT1=
EXTT2=
EXTT3=
EXTT4=
EXTT5=
EXTT6=
EXTT7=
EXTT8=
EXTT9=
EXTT10=
EXTT11=
EXTT12=
EXTT13=
EXTT14=
EXTT15=
EXTT16=
EXTT17=
EXTT18=
PLAYORDER=
